<?xml version="1.0" encoding="UTF-8"?><svg id="Capa_1" xmlns="http://www.w3.org/2000/svg" viewBox="0 0 170.99 52.17"><defs><style>.cls-1{fill:#fff;stroke:#000;stroke-miterlimit:10;}</style></defs><g><path class="cls-1" d="M95.19,28.74c-.37-6.96-.81-15.32-.74-21.54h-.22c-1.7,5.85-3.77,12.06-6.29,18.94l-8.81,24.2h-4.88l-8.07-23.76c-2.37-7.03-4.37-13.47-5.77-19.39h-.15c-.15,6.22-.52,14.58-.96,22.05l-1.33,21.39h-6.14L55.31,.77h8.21l8.51,24.13c2.07,6.14,3.77,11.62,5.03,16.8h.22c1.26-5.03,3.03-10.51,5.25-16.8L91.42,.77h8.21l3.11,49.88h-6.29l-1.26-21.91Z"/><path class="cls-1" d="M112.22,44.15c0,1.17,.34,2.08,1.01,2.73s1.62,.97,2.86,.97,2.24-.32,2.87-.95,.95-1.58,.95-2.85l.33,3.16c-.48,1.27-1.18,2.21-2.07,2.84s-2.01,.94-3.34,.94c-1.89,0-3.36-.6-4.39-1.79s-1.56-2.88-1.56-5.05V26.32h3.35v17.84Zm7.69-17.84h3.35v24.33h-3.35V26.32Z"/><path class="cls-1" d="M130.99,50.19c-1.09-.54-1.9-1.35-2.45-2.43s-.82-2.43-.82-4.05h3.12c0,1.47,.35,2.57,1.05,3.3s1.77,1.1,3.19,1.1,2.48-.35,3.19-1.05,1.05-1.76,1.05-3.16c0-.7-.15-1.29-.45-1.76s-.7-.85-1.2-1.14-1.12-.56-1.88-.81c-.11-.03-.22-.07-.34-.11s-.24-.07-.36-.11c-.08-.03-.16-.06-.25-.08s-.17-.04-.25-.06c-1.41-.42-2.55-.84-3.42-1.27s-1.62-1.09-2.24-1.99-.93-2.13-.93-3.68,.25-2.86,.76-3.9,1.27-1.82,2.29-2.33,2.29-.77,3.82-.77,2.8,.25,3.82,.75,1.78,1.25,2.29,2.26,.76,2.27,.76,3.79h-3.12c0-1.31-.31-2.29-.94-2.94s-1.56-.97-2.81-.97-2.19,.34-2.81,1.01-.94,1.68-.94,3.02c0,.83,.19,1.5,.57,2.03s.88,.93,1.49,1.23,1.38,.58,2.32,.84c.05,.02,.1,.03,.15,.04s.11,.02,.15,.04c.03,.02,.07,.03,.11,.04s.07,.01,.11,.01c1.36,.38,2.47,.77,3.33,1.18s1.59,1.07,2.18,1.98,.89,2.14,.89,3.7-.27,2.91-.81,3.96-1.36,1.83-2.45,2.36-2.46,.79-4.1,.79-3-.27-4.09-.81Z"/><path class="cls-1" d="M150.07,35.83v11.55c0,.69,.04,1.21,.12,1.58s.21,.63,.39,.8,.41,.26,.68,.28,.61,.04,1,.04v.56h-6.98v-.56c.48,0,.87-.04,1.16-.11s.51-.21,.67-.41,.25-.48,.29-.83,.06-.8,.06-1.35v-5.53c0-.91-.02-1.62-.05-2.16s-.09-.93-.16-1.18-.19-.42-.34-.49-.34-.11-.57-.11c-.16,0-.32,.02-.48,.06s-.36,.1-.57,.18l-.23-.56,4.34-1.76h.7Zm-1.31-7.52c.45,0,.83,.15,1.14,.46s.46,.68,.46,1.14-.15,.81-.46,1.12-.68,.47-1.14,.47-.83-.16-1.14-.47-.46-.69-.46-1.12,.15-.83,.46-1.14,.68-.46,1.14-.46Z"/><path class="cls-1" d="M158.51,50.14c-1.09-.57-1.93-1.4-2.51-2.48s-.87-2.4-.87-3.95v-10.17c0-1.61,.29-2.98,.87-4.12s1.42-2.01,2.52-2.61,2.43-.9,3.97-.9,2.9,.3,4.01,.9,1.95,1.48,2.53,2.62,.87,2.54,.87,4.16v.19h-3.21v-.19c0-1.44-.36-2.55-1.08-3.35s-1.73-1.2-3.05-1.2-2.28,.39-2.99,1.17-1.07,1.89-1.07,3.33v10.17c0,1.33,.35,2.35,1.05,3.07s1.7,1.08,3,1.08,2.33-.37,3.05-1.11,1.08-1.79,1.08-3.13v-.19h3.26v.19c0,1.56-.29,2.89-.88,4s-1.44,1.94-2.55,2.52-2.46,.87-4.02,.87-2.89-.29-3.98-.86Z"/></g><g><path d="M107.57,4.36h3.63V25.17h-3.63V4.36Zm2.15,18.11h7.05c1.85,0,3.2-.28,4.04-.84s1.27-1.36,1.27-2.38v-.04c0-.71-.15-1.31-.46-1.82-.3-.51-.78-.9-1.44-1.17-.66-.27-1.5-.41-2.52-.41h-7.94v-2.63h7.94c1.35,0,2.36-.25,3.05-.76,.69-.51,1.03-1.25,1.03-2.25s-.38-1.82-1.14-2.33c-.76-.52-1.91-.77-3.43-.77h-7.44v-2.71h8.1c1.68,0,3.09,.23,4.22,.69s1.98,1.11,2.54,1.95,.84,1.84,.84,3.01c0,.72-.17,1.39-.52,2.01-.35,.63-.87,1.16-1.58,1.6-.71,.44-1.59,.74-2.64,.9,1.05,.12,1.96,.42,2.72,.89,.76,.47,1.35,1.06,1.75,1.77,.41,.71,.61,1.47,.61,2.29v.04c0,1.13-.31,2.12-.93,2.98s-1.51,1.52-2.67,1.99c-1.16,.47-2.5,.7-4.04,.7h-8.41v-2.71Z"/><path d="M134.49,24.44c-1.38-.63-2.45-1.53-3.21-2.69-.76-1.16-1.14-2.5-1.14-4.03v-5.9c0-1.53,.38-2.87,1.14-4.03,.76-1.16,1.83-2.06,3.21-2.69,1.38-.63,2.98-.95,4.79-.95s3.41,.32,4.79,.95c1.38,.63,2.45,1.53,3.21,2.69,.76,1.16,1.14,2.5,1.14,4.03v5.9c0,1.53-.38,2.87-1.14,4.03-.76,1.16-1.83,2.06-3.21,2.69-1.38,.63-2.98,.95-4.79,.95s-3.41-.32-4.79-.95Zm7.63-2.51c.82-.39,1.45-.94,1.9-1.65,.45-.71,.67-1.53,.67-2.47v-6.1c0-.94-.22-1.76-.67-2.47s-1.08-1.26-1.9-1.65c-.82-.39-1.76-.58-2.83-.58s-2.02,.19-2.83,.58c-.82,.39-1.45,.94-1.9,1.65s-.67,1.53-.67,2.47v6.1c0,.94,.22,1.76,.67,2.47,.45,.71,1.08,1.26,1.9,1.65,.82,.39,1.76,.58,2.83,.58s2.02-.19,2.83-.58Z"/><path d="M159.97,13.28l6.53-8.92h4.1l-8.6,11.27-6.98,9.55h-4.1l9.05-11.9Zm.16,2.75l-.55-.72-8.44-10.95h4.1l6.28,8.48,.59,.77,8.89,11.57h-4.1l-6.76-9.15Z"/></g><g><path d="M11.53,51.47c-2.2-.47-4.26-1.17-6.17-2.11-1.91-.94-3.7-2.11-5.36-3.52l4.46-5.48c1.95,1.69,4.09,2.95,6.43,3.8,2.34,.84,4.89,1.27,7.63,1.27,3.7,0,6.57-.69,8.61-2.06s3.06-3.31,3.06-5.82v-.04c0-1.78-.46-3.19-1.39-4.24-.93-1.04-2.12-1.82-3.59-2.32-1.46-.5-3.36-.97-5.68-1.39-.07-.02-.15-.04-.23-.04s-.16-.01-.23-.04l-.53-.11c-3.42-.59-6.21-1.25-8.35-1.99s-3.98-2.09-5.5-4.04c-1.52-1.96-2.29-4.74-2.29-8.35v-.04c0-3.16,.71-5.87,2.13-8.1,1.42-2.24,3.49-3.94,6.21-5.12,2.72-1.17,5.99-1.76,9.81-1.76,1.83,0,3.63,.2,5.4,.6,1.77,.4,3.52,.99,5.24,1.78,1.72,.79,3.42,1.78,5.08,2.97l-4.08,5.7c-1.95-1.43-3.88-2.5-5.82-3.22-1.93-.71-3.87-1.07-5.82-1.07-3.49,0-6.21,.7-8.14,2.09-1.93,1.39-2.9,3.37-2.9,5.92v.04c0,1.76,.5,3.14,1.49,4.15,1,1.01,2.24,1.75,3.73,2.23,1.49,.48,3.56,.98,6.21,1.49,.09,.02,.18,.04,.26,.05,.08,.01,.17,.03,.26,.05,.12,.02,.25,.05,.39,.07,.14,.02,.27,.05,.39,.07,3.09,.63,5.68,1.38,7.75,2.25,2.07,.87,3.81,2.27,5.2,4.2,1.39,1.93,2.09,4.58,2.09,7.93v.07c0,3.12-.74,5.78-2.21,8s-3.62,3.9-6.42,5.06c-2.8,1.16-6.18,1.74-10.14,1.74-2.46,0-4.79-.23-7-.7Z"/><path d="M50.36,51.65h-7.17V.53h7.17V51.65Z"/></g></svg>